<?xml version="1.0" encoding="utf-8"?>
<!-- Generator: Adobe Illustrator 23.0.6, SVG Export Plug-In . SVG Version: 6.00 Build 0)  -->
<svg version="1.1" id="Layer_1" xmlns="http://www.w3.org/2000/svg" xmlns:xlink="http://www.w3.org/1999/xlink" x="0px" y="0px"
	 viewBox="0 0 62.4 70.3" style="enable-background:new 0 0 62.4 70.3;" xml:space="preserve">
<style type="text/css">
	.st0{fill:#30BDCA;}
	.st1{fill:#2CBDCA;}
</style>
<g>
	<path d="M49.2,16.3c1.1,0,2,0.9,2,2v2.5v1.7l1.7,0.3c0.6,0.1,1.1,0.7,1.1,1.3v3.1v2h2h4.3c0.1,0,0.1,0,0.1,0c0,0,0,0,0,0.1v1.9
		c0,0.1,0,0.1,0,0.1c0,0,0,0-0.1,0H56h-2v2v3c-0.1,0.7-0.5,1.2-1.1,1.3l-1.7,0.3v1.7v2.6c0,1.1-0.9,2-2.1,2H13.3c-1.1,0-2-0.9-2-2
		v-2.6v-1.7l-1.7-0.3c-0.6-0.1-1.1-0.7-1.1-1.3v-3.1v-2h-2H2.1c-0.1,0-0.1,0-0.1,0c0,0,0,0,0-0.1v-1.9c0-0.1,0-0.1,0-0.1
		c0,0,0,0,0.1,0h4.4h2v-2V24c0-0.6,0.5-1.2,1.1-1.3l1.7-0.3v-1.7v-2.5c0-1.1,0.9-2,2-2H49.2 M49.2,14.3H13.3c-2.2,0-4,1.8-4,4v2.5
		C7.7,21,6.5,22.4,6.5,24v3.1H2.1C0.9,27.1,0,28,0,29.2v1.9c0,1.2,0.9,2.1,2.1,2.1h4.4v3.1c0,1.6,1.2,3,2.8,3.2v2.6c0,2.2,1.8,4,4,4
		h35.8c2.3,0,4.1-1.8,4.1-4v-2.6c1.6-0.3,2.7-1.6,2.8-3.2v-3.1h4.3c1.2,0,2.1-0.9,2.1-2.1v-1.9c0-1.2-0.9-2.1-2.1-2.1H56V24
		c0-1.6-1.2-3-2.8-3.2v-2.5C53.2,16.1,51.4,14.3,49.2,14.3L49.2,14.3z"/>
</g>
<g>
	<path d="M46.5,52c2.6,0,4.7,2.1,4.7,4.7v11.6h-40V56.7c0-2.6,2.1-4.7,4.7-4.7H46.5 M46.5,50H15.9c-3.7,0-6.7,3-6.7,6.7v13.6h44
		V56.7C53.2,53,50.2,50,46.5,50L46.5,50z"/>
</g>
<g>
	<path d="M23.4,23.1c1.5,0,2.8,1.2,2.8,2.8s-1.2,2.8-2.8,2.8s-2.8-1.2-2.8-2.8S21.9,23.1,23.4,23.1 M23.4,21.1
		c-2.6,0-4.8,2.1-4.8,4.8s2.1,4.8,4.8,4.8s4.8-2.1,4.8-4.8S26.1,21.1,23.4,21.1L23.4,21.1z"/>
</g>
<g>
	<path d="M38.4,23.1c1.5,0,2.8,1.2,2.8,2.8s-1.2,2.8-2.8,2.8s-2.8-1.2-2.8-2.8S36.9,23.1,38.4,23.1 M38.4,21.1
		c-2.6,0-4.8,2.1-4.8,4.8s2.1,4.8,4.8,4.8s4.8-2.1,4.8-4.8S41.1,21.1,38.4,21.1L38.4,21.1z"/>
</g>
<g>
	<path class="st0" d="M39,38.3c-0.4,0.8-1.2,1.3-2.1,1.3H24.4c-0.9,0-1.7-0.5-2.1-1.3H39 M40.3,37.3H21.1l0,0c0,1.8,1.5,3.3,3.3,3.3
		h12.5C38.8,40.6,40.3,39.2,40.3,37.3L40.3,37.3L40.3,37.3z"/>
</g>
<g>
	<polygon points="40.3,32.6 21.1,32.6 21.1,34.6 40.3,34.6 	"/>
</g>
<g>
	<polygon points="22.2,10.3 18.7,10.3 18.7,15.7 22.2,15.7 22.2,10.3 	"/>
</g>
<g>
	<polygon points="42.8,10.3 39.3,10.3 39.3,15.7 42.8,15.7 42.8,10.3 	"/>
</g>
<circle cx="20.2" cy="6.2" r="5.2"/>
<path class="st0" d="M18.4,9c0,0-3.3-5.6,3.9-5.2C22.3,3.9,11.2,0.7,18.4,9z"/>
<circle cx="41.6" cy="6.2" r="5.2"/>
<path class="st0" d="M39.9,9c0,0-3.3-5.6,3.9-5.2C43.8,3.9,32.7,0.7,39.9,9z"/>
<circle class="st1" cx="19.7" cy="60.9" r="3.7"/>
<circle class="st1" cx="28.8" cy="60.9" r="3.7"/>
<g>
	<path d="M6.6,59.2c0.2,0,0.4,0,0.4,0c0,0,0,0,0,0l0.1,0h0.1h1.3v0.6c-1.3,0.1-2.3,0.6-3.1,1.4c-0.8,0.8-1,1.8-1,2.5v3.9H2v-3.9
		C2.6,59.9,4.9,59.2,6.6,59.2 M6.6,57.2c-1.6,0-5.8,0.6-6.6,6.2c0,2.7,0,6.1,0,6.1h6.5v-5.9c0,0-0.1-1.9,3-1.9c0.3,0,0.7,0,1.1,0.1
		c0-4.6,0-4.6,0-4.6H7.3C7.3,57.2,7,57.2,6.6,57.2L6.6,57.2z"/>
</g>
<g>
	<path d="M54.9,59.2L54.9,59.2c1.8,0,4,0.8,4.6,4.4c0,1.3,0.1,2.8,0.1,3.9h-2.5v-3.9c0-0.7-0.2-1.7-1-2.5c-0.7-0.8-1.8-1.2-3.1-1.4
		v-0.6h1.2l0.1,0l0.1,0C54.5,59.2,54.6,59.2,54.9,59.2 M54.9,57.2c-0.4,0-0.7,0-0.7,0H51c0,0,0,0,0,4.6c0.4,0,0.8-0.1,1.1-0.1
		c3.1,0,3,1.9,3,1.9v5.9h6.5c0,0,0-3.4-0.1-6.1C60.6,57.7,56.5,57.2,54.9,57.2L54.9,57.2z"/>
</g>
</svg>
