<?xml version="1.0" encoding="utf-8"?>
<!-- Generator: Adobe Illustrator 23.0.3, SVG Export Plug-In . SVG Version: 6.00 Build 0)  -->
<svg version="1.1" id="Layer_1" xmlns="http://www.w3.org/2000/svg" xmlns:xlink="http://www.w3.org/1999/xlink" x="0px" y="0px"
	 viewBox="0 0 512 512" style="enable-background:new 0 0 512 512;" xml:space="preserve">
<style type="text/css">
	.st0{fill:#FFFFFF;}
</style>
<path class="st0" d="M239.1,451.7c-11,0-19.9,8.9-19.9,19.9s8.9,19.9,19.9,19.9s19.9-8.9,19.9-19.9S250.1,451.7,239.1,451.7z
	 M239.1,476.5c-2.7,0-4.9-2.2-4.9-4.9c0-2.7,2.2-4.9,4.9-4.9s4.9,2.2,4.9,4.9C244.1,474.3,241.8,476.5,239.1,476.5z"/>
<path class="st0" d="M435.7,74.6V43.5c0-24-19.5-43.5-43.5-43.5h-88c-24,0-43.5,19.5-43.5,43.5V55H146.5c-9.7,0-17.5,7.9-17.5,17.5
	v37.8h-18.1V47.6c0-5.3,4.3-9.6,9.6-9.6H234c4.1,0,7.5-3.4,7.5-7.5S238.1,23,234,23H120.4c-13.6,0-24.6,11-24.6,24.6v62.8H44.5
	c-4.1,0-7.5,3.4-7.5,7.5s3.4,7.5,7.5,7.5h51.4V143H44.5c-4.1,0-7.5,3.4-7.5,7.5s3.4,7.5,7.5,7.5h51.4v329.5
	c0,13.6,11,24.6,24.6,24.6h237.3c13.6,0,24.6-11,24.6-24.6V249.4h49c24.1,0,43.7-19.6,43.7-43.7V118
	C475.1,95.4,457.8,76.7,435.7,74.6z M416.9,167.5c0,16.2-13.2,29.4-29.4,29.4c-13.6,0-25.1-9.3-28.4-21.9h33
	c9.2,0,17.7-2.9,24.7-7.7C416.9,167.4,416.9,167.5,416.9,167.5z M275.6,43.5c0-15.7,12.8-28.5,28.5-28.5h88
	c15.7,0,28.5,12.8,28.5,28.5v88c0,6-1.9,11.6-5,16.1c-0.3,0.4-0.6,0.7-0.8,1.1c-5.2,6.8-13.4,11.2-22.6,11.2h-88
	c-15.7,0-28.5-12.8-28.5-28.5V43.5H275.6z M110.9,125.3H129V143h-18.1V125.3z M367.4,487.4c0,5.3-4.3,9.6-9.6,9.6H120.4
	c-5.3,0-9.6-4.3-9.6-9.6V158h18.1v271.7c0,9.7,7.9,17.5,17.5,17.5h185.3c9.7,0,17.5-7.9,17.5-17.5v-96.2c0-4.1-3.4-7.5-7.5-7.5
	s-7.5,3.4-7.5,7.5v96.2c0,1.4-1.1,2.5-2.5,2.5H146.5c-1.4,0-2.5-1.1-2.5-2.5V158h72.5c4.1,0,7.5-3.4,7.5-7.5s-3.4-7.5-7.5-7.5H144
	v-17.6h101.7c4.1,0,7.5-3.4,7.5-7.5s-3.4-7.5-7.5-7.5H143.9V72.6c0-1.4,1.1-2.5,2.5-2.5h114.2v61.5c0,22.6,17.3,41.2,39.4,43.3v30.9
	c0,20.9,14.7,38.3,34.3,42.6v50.2c0,4.1,3.4,7.5,7.5,7.5s7.5-3.4,7.5-7.5v-49.1h18.1L367.4,487.4L367.4,487.4z M460.1,205.7
	c0,15.8-12.9,28.7-28.7,28.7h-87.7c-15.8,0-28.7-12.9-28.7-28.7V175h28.8c3.6,20.9,21.8,36.9,43.7,36.9c24.5,0,44.4-19.9,44.4-44.4
	c0-4.8-0.8-9.5-2.2-13.9c3.8-6.5,6-14,6-22.1V89.7c13.8,2.1,24.4,14,24.4,28.3L460.1,205.7L460.1,205.7z"/>
<path class="st0" d="M284,243.5h-88c-24,0-43.5,19.5-43.5,43.5v88c0,24,19.5,43.5,43.5,43.5h88c24,0,43.5-19.5,43.5-43.5v-88
	C327.5,263,308,243.5,284,243.5z M250.6,330.9l58.1-58.2c2.4,4.2,3.8,9.1,3.8,14.3v88c0,5.1-1.4,9.9-3.8,14.1L250.6,330.9z
	 M284,258.5c5.1,0,9.9,1.3,14,3.7l-58,58.1l-58-58.1c4.1-2.3,8.9-3.7,14-3.7H284z M196,403.5c-15.7,0-28.5-12.8-28.5-28.5v-88
	c0-5.2,1.4-10.1,3.8-14.3l58.1,58.2l-39.5,39.5c-2.9,2.9-2.9,7.7,0,10.6c1.5,1.5,3.4,2.2,5.3,2.2c1.9,0,3.8-0.7,5.3-2.2l39.5-39.5
	l58.1,58.2c-4.2,2.4-9,3.8-14.1,3.8L196,403.5L196,403.5z"/>
<path class="st0" d="M160,191.3h85.6c4.1,0,7.5-3.4,7.5-7.5s-3.4-7.5-7.5-7.5H160c-4.1,0-7.5,3.4-7.5,7.5
	C152.5,187.9,155.8,191.3,160,191.3z"/>
<path class="st0" d="M160,223.9h85.6c4.1,0,7.5-3.4,7.5-7.5s-3.4-7.5-7.5-7.5H160c-4.1,0-7.5,3.4-7.5,7.5S155.8,223.9,160,223.9z"/>
<path class="st0" d="M313.4,127c12.7,0,23.1-10.3,23.1-23.1c0-6.8-3-13-7.8-17.2V68.2h41.6V81c-0.1,0-0.2,0-0.3,0
	c-12.7,0-23.1,10.3-23.1,23.1c0,12.7,10.3,23.1,23.1,23.1c12.7,0,23.1-10.3,23.1-23.1c0-6.8-3-13-7.8-17.2V40.4
	c0-4.1-3.4-7.5-7.5-7.5h-56.6c-4.1,0-7.5,3.4-7.5,7.5V81c-0.1,0-0.2,0-0.3,0c-12.7,0-23.1,10.3-23.1,23.1S300.7,127,313.4,127z
	 M369.9,112.1c-4.4,0-8.1-3.6-8.1-8.1c0-4.4,3.6-8.1,8.1-8.1c4.4,0,8.1,3.6,8.1,8.1S374.4,112.1,369.9,112.1z M370.2,47.9v5.3h-41.6
	v-5.3H370.2z M313.4,95.9c4.4,0,8.1,3.6,8.1,8.1s-3.6,8.1-8.1,8.1c-4.4,0-8.1-3.6-8.1-8.1S308.9,95.9,313.4,95.9z"/>
</svg>
