<?xml version="1.0" encoding="utf-8"?>
<!-- Generator: Adobe Illustrator 23.0.6, SVG Export Plug-In . SVG Version: 6.00 Build 0)  -->
<svg version="1.1" id="Layer_1" xmlns="http://www.w3.org/2000/svg" xmlns:xlink="http://www.w3.org/1999/xlink" x="0px" y="0px"
	 viewBox="0 0 471.4 405.2" style="enable-background:new 0 0 471.4 405.2;" xml:space="preserve">
<style type="text/css">
	.st0{fill:#63EFFF;}
	.st1{fill:none;stroke:#000000;stroke-width:8.4178;stroke-miterlimit:10;}
	.st2{fill:none;stroke:#000000;stroke-width:9;stroke-miterlimit:10;}
	.st3{fill:none;stroke:#000000;stroke-width:9;stroke-linecap:round;stroke-miterlimit:10;}
</style>
<path class="st0" d="M359.5,75.7c0,0-17.1-2.8-15,29.6c2.2,32.4,2.9,97,2.9,97s0.7,19.6-18.7,31.1c-19.4,11.5-91.9,54.7-91.9,54.7
	s-14.6,10.3,4.8,20.4c21.4-11.5,122.6-71.5,122.6-71.5l5.3-8.4l-1-106.8V85.7L359.5,75.7z"/>
<polygon class="st1" points="370.9,82.3 236.8,4.9 102.7,82.3 102.7,237.1 236.8,314.5 370.9,237.1 "/>
<line class="st1" x1="102.7" y1="82.3" x2="370.9" y2="237.1"/>
<path class="st0" d="M366.9,286.1l38.4,40.8l34.6,48.5l-8.2,2.4H4.5c0,0,5.7,23.1,18.2,22.9c12.5-0.2,387.8-2.8,387.8-2.8l41.8,4.8
	c0,0,20.2-7.7,9.6-29.8c-10.6-22.1-41.8-55.7-41.8-55.7l-31.7-33.6L366.9,286.1z"/>
<line class="st1" x1="370.9" y1="82.3" x2="102.7" y2="237.1"/>
<g>
	<path d="M467.3,361.3l-69.7-76.9c-2.1-2.3-5.1-3.6-8.2-3.6h-76.8c-0.9,0.9-1.4,2.2-1.4,3.5v2c0,1.4,0.5,2.6,1.4,3.5h76.8
		c0.6,0,1.1,0.3,1.5,0.7l69.7,76.8c0.8,0.9,0.5,1.9,0.4,2.2c-0.2,0.4-0.7,1.2-1.9,1.2h-446c-1.2,0-1.7-0.9-1.9-1.2
		c-0.2-0.4-0.5-1.3,0.4-2.2l69.7-76.8c0.4-0.4,1-0.7,1.5-0.7h72c0.9-0.9,1.4-2.2,1.4-3.5v-2c0-1.4-0.5-2.6-1.4-3.5h-72
		c-3.1,0-6.1,1.3-8.2,3.6L4.8,361.3c-3,3.3-3.7,7.9-1.9,11.9c1.8,4.1,5.7,6.6,10.1,6.6h446c4.4,0,8.3-2.5,10.1-6.6
		C471,369.2,470.2,364.6,467.3,361.3z"/>
</g>
<path class="st2" d="M6.5,369.2c0,0-11.8,31.7,22.7,31.3c34.6-0.4,418,0,418,0s25.8,4,18.5-31.3"/>
<line class="st3" x1="63.5" y1="340.3" x2="89.9" y2="303.8"/>
<line class="st3" x1="76.7" y1="375.3" x2="130.2" y2="285.3"/>
<line class="st3" x1="421.9" y1="372.6" x2="360" y2="288.1"/>
</svg>
