<?xml version="1.0" encoding="utf-8"?>
<!-- Generator: Adobe Illustrator 23.0.3, SVG Export Plug-In . SVG Version: 6.00 Build 0)  -->
<svg version="1.1" id="Capa_1" xmlns="http://www.w3.org/2000/svg" xmlns:xlink="http://www.w3.org/1999/xlink" x="0px" y="0px"
	 viewBox="0 0 512 512" style="enable-background:new 0 0 512 512;" xml:space="preserve">
<style type="text/css">
	.st0{fill:#29BDCA;}
	.st1{fill:none;stroke:#000000;stroke-width:19.0031;stroke-miterlimit:10;}
</style>
<g>
	<g>
		<path class="st0" d="M325,243.5c17.1-9.6,26.4-29,23.2-48.3c-4-29.9-39.6-41.2-67.8-43.6v-45h-27.7v44.6H234v-44.6h-27.7v44.6
			h-55.9v28.7h20.8c9.3,0,13.9,2.8,13.9,10.3v123.4c0,10.3-5.2,13.5-10.7,13.5h-21.2v29.3h53.9V402H235v-45.6h18.6V402h27.1v-45.6
			h5.9c57.1,0,76.1-27.9,76.1-66C362.3,268,346.8,248.7,325,243.5z M234,181.7h19.8c13.9,0,41.2,2.4,41.2,25
			c1,14.7-9.7,27.7-24.4,29.5H234C234,236.2,234,181.7,234,181.7z M264.7,324.4v-0.2H234v-59.4h35.7c8.3,0,39.6,2.8,39.6,25
			S294.4,324.4,264.7,324.4z"/>
	</g>
</g>
<circle class="st1" cx="256" cy="256" r="242.5"/>
</svg>
