<?xml version="1.0" encoding="utf-8"?>
<!-- Generator: Adobe Illustrator 23.0.3, SVG Export Plug-In . SVG Version: 6.00 Build 0)  -->
<svg version="1.1" id="Layer_5" xmlns="http://www.w3.org/2000/svg" xmlns:xlink="http://www.w3.org/1999/xlink" x="0px" y="0px"
	 viewBox="0 0 512 512" style="enable-background:new 0 0 512 512;" xml:space="preserve">
<style type="text/css">
	.st0{fill:#29BDCA;}
</style>
<path d="M408,296.4V272c0-13.2-10.8-24-24-24H120c-13.2,0-24,10.8-24,24v8H32c-13.2,0-24,10.8-24,24v16c0,11.1,7.6,20.3,17.8,23.1
	c-1.1,2.8-1.8,5.8-1.8,8.9s0.7,6.2,1.8,8.9C15.6,363.7,8,372.9,8,384v16c0,11.1,7.6,20.3,17.8,23.1c-1.1,2.8-1.8,5.8-1.8,8.9
	s0.7,6.2,1.8,8.9C15.6,443.7,8,452.9,8,464v16c0,13.2,10.8,24,24,24h144c13.2,0,24-10.8,24-24v-16c0-11.1-7.6-20.3-17.8-23.1
	c1.1-2.8,1.8-5.8,1.8-8.9s-0.7-6.2-1.8-8.9c10.2-2.8,17.8-12,17.8-23.1v-16c0-11.1-7.6-20.3-17.8-23.1c1.1-2.8,1.8-5.8,1.8-8.9
	s-0.7-6.2-1.8-8.9c10.2-2.8,17.8-12,17.8-23.1v-16c0-13.2-10.8-24-24-24h-64v-8c0-4.4,3.6-8,8-8h264c4.4,0,8,3.6,8,8v24.4
	c-53.6,4.1-96,49-96,103.6c0,57.3,46.7,104,104,104s104-46.7,104-104C504,345.4,461.6,300.5,408,296.4z M184,464v16c0,4.4-3.6,8-8,8
	H32c-4.4,0-8-3.6-8-8v-16c0-4.4,3.6-8,8-8h144C180.4,456,184,459.6,184,464z M40,432c0-4.4,3.6-8,8-8h112c4.4,0,8,3.6,8,8
	s-3.6,8-8,8H48C43.6,440,40,436.4,40,432z M184,384v16c0,4.4-3.6,8-8,8H32c-4.4,0-8-3.6-8-8v-16c0-4.4,3.6-8,8-8h144
	C180.4,376,184,379.6,184,384z M40,352c0-4.4,3.6-8,8-8h112c4.4,0,8,3.6,8,8s-3.6,8-8,8H48C43.6,360,40,356.4,40,352z M176,296
	c4.4,0,8,3.6,8,8v16c0,4.4-3.6,8-8,8H32c-4.4,0-8-3.6-8-8v-16c0-4.4,3.6-8,8-8H176z M400,488c-23.8,0-45.3-9.5-61.2-24.9
	c7.3-23.2,28.5-39.1,53.2-39.1h16c24.7,0,45.9,15.9,53.2,39.1C445.3,478.5,423.8,488,400,488z M368,376c0-17.7,14.3-32,32-32
	s32,14.3,32,32s-14.3,32-32,32S368,393.7,368,376z M473,449.1c-8.3-17.5-23.2-30.9-41.3-37.1c10-8.8,16.3-21.6,16.3-36
	c0-26.5-21.5-48-48-48s-48,21.5-48,48c0,14.3,6.3,27.2,16.3,36c-18.1,6.3-33,19.6-41.3,37.1c-9.5-14-15-30.9-15-49.1
	c0-48.5,39.5-88,88-88s88,39.5,88,88C488,418.2,482.5,435,473,449.1z"/>
<rect x="253.3" y="207.6" width="16.9" height="49.5"/>
<g>
	<path class="st0" d="M384,104.7V104c0-35.3-28.7-64-64-64c-11.1,0-21.5,2.8-30.6,7.8C273.2,23.1,245.9,8,216,8
		c-48.5,0-88,39.5-88,88c0,2.9,0.2,5.7,0.5,8.6C101.2,108.3,80,131.7,80,160c0,30.9,25.1,56,56,56h240c30.9,0,56-25.1,56-56
		C432,132,411.3,108.7,384,104.7z M376,200H136c-22.1,0-40-17.9-40-40s17.9-40,40-40s40,17.9,40,40h16c0-28-20.6-51.1-47.4-55.3
		c-0.3-2.9-0.6-5.8-0.6-8.7c0-39.7,32.3-72,72-72c24.7,0,47.3,12.6,60.5,33.2C263.9,68.9,256,85.5,256,104h16c0-26.5,21.5-48,48-48
		s48,21.5,48,48c0,2.1-0.2,4.2-0.6,6.9l-0.7,9.1h9.2c22.1,0,40,17.9,40,40S398.1,200,376,200z"/>
</g>
</svg>
