<?xml version="1.0" encoding="utf-8"?>
<!-- Generator: Adobe Illustrator 23.0.3, SVG Export Plug-In . SVG Version: 6.00 Build 0)  -->
<svg version="1.1" id="Layer_1" xmlns="http://www.w3.org/2000/svg" xmlns:xlink="http://www.w3.org/1999/xlink" x="0px" y="0px"
	 viewBox="0 0 64 45.2" style="enable-background:new 0 0 64 45.2;" xml:space="preserve">
<style type="text/css">
	.st0{fill:#09B4AE;}
</style>
<g id="Quotemarks-right">
	<path class="st0" d="M49.8,45.2C57.6,45.2,64,38.8,64,31c0-7.5-5.9-13.7-13.4-14.2c-0.1-1.4,0-5.2,3.6-10.4
		c0.3-0.4,0.2-0.9-0.1-1.3c-1.5-1.5-2.4-2.4-3-3.1c-0.8-0.9-1.2-1.2-1.8-1.8C49.1,0.1,48.8,0,48.6,0c-0.2,0-0.5,0.1-0.7,0.2
		c-6.3,5.5-13.4,16.9-12.3,30.8C36.2,39.2,42.2,45.2,49.8,45.2z M48.6,2.4c0.3,0.3,0.6,0.6,1,1.1C50.2,4,51,4.8,52.1,5.9
		c-4.4,6.8-3.6,11.6-3.2,12.3c0.2,0.3,0.5,0.6,0.9,0.6C56.5,18.8,62,24.3,62,31c0,6.7-5.5,12.2-12.2,12.2c-6.5,0-11.7-5.2-12.2-12.3
		C36.5,15.2,45.8,5.1,48.6,2.4z"/>
	<path class="st0" d="M0.1,31.1L0.1,31.1c0.6,8.2,6.6,14.1,14.2,14.1c7.8,0,14.2-6.4,14.2-14.2c0-7.5-5.9-13.7-13.4-14.2
		c-0.1-1.4,0-5.2,3.6-10.4C19,6,18.9,5.4,18.6,5.1c-1.5-1.5-2.4-2.4-3-3.1c-0.8-0.9-1.2-1.3-1.8-1.8C13.6,0.1,13.3,0,13.1,0
		c-0.2,0-0.5,0.1-0.7,0.2C6.1,5.8-0.9,17.1,0.1,31.1z M13.1,2.4c0.3,0.3,0.6,0.6,1,1.1c0.6,0.6,1.3,1.3,2.5,2.5
		c-4.4,6.8-3.6,11.6-3.2,12.3c0.2,0.3,0.5,0.6,0.9,0.6c6.7,0,12.2,5.5,12.2,12.2c0,6.7-5.5,12.2-12.2,12.2C7.7,43.2,2.6,38,2.1,30.9
		v0C1,15.2,10.3,5.1,13.1,2.4z"/>
</g>
</svg>
